<svg id="SvgjsSvg1016" xmlns="http://www.w3.org/2000/svg" version="1.1" xmlns:xlink="http://www.w3.org/1999/xlink" xmlns:svgjs="http://svgjs.com/svgjs" width="41" height="55" viewBox="0 0 41 55"><title>Shape 7</title><desc>Created with Avocode.</desc><defs id="SvgjsDefs1017"></defs><path id="SvgjsPath1018" d="M167.046 826.427C167.047 826.427 167.048 826.427 167.04899999999998 826.427C167.59699999999998 826.427 168.00499999999997 826.0400000000001 168.034 825.547L168.308 820.75C168.797 812.028 176.84799999999998 810.113 177.191 810.036C177.695 809.924 178.01500000000001 809.425 177.904 808.9219999999999C177.849 808.6739999999999 177.701 808.463 177.487 808.329C177.337 808.2349999999999 177.16899999999998 808.1859999999999 176.99599999999998 808.1859999999999C176.92899999999997 808.1859999999999 176.85999999999999 808.194 176.79299999999998 808.209L176.79199999999997 808.209C176.69399999999996 808.231 167.009 810.4989999999999 166.43999999999997 820.6429999999999L166.16599999999997 825.439C166.13599999999997 825.954 166.53099999999998 826.3969999999999 167.04599999999996 826.427ZM183.363 840.253L196.052 840.253C196.56699999999998 840.253 196.988 839.8340000000001 196.988 839.3190000000001C196.988 838.8030000000001 196.567 838.383 196.052 838.383L193.804 838.383L192.022 818.7270000000001C191.301 812.7680000000001 187.66199999999998 807.4250000000001 182.753 805.1240000000001L182.581 805.0430000000001L182.581 800.5460000000002C182.581 797.4710000000001 180.07299999999998 794.9690000000002 176.99099999999999 794.9690000000002C173.908 794.9690000000002 171.39999999999998 797.4710000000001 171.39999999999998 800.5460000000002L171.39999999999998 805.0280000000001L171.224 805.1070000000001C166.13 807.4200000000001 162.664 812.5280000000001 161.95399999999998 818.7710000000001L160.177 838.383L157.929 838.383C157.41400000000002 838.383 156.994 838.803 156.994 839.3190000000001C156.994 839.8340000000001 157.414 840.253 157.929 840.253L170.619 840.253L170.619 842.6270000000001C170.619 846.1310000000001 173.477 848.9830000000001 176.99099999999999 848.9830000000001C180.505 848.9830000000001 183.363 846.1310000000001 183.363 842.6270000000001ZM162.055 838.383L163.815 818.961C164.564 812.379 169.329 805.722 176.99099999999999 805.722C184.509 805.722 189.38799999999998 812.523 190.16199999999998 818.924L191.926 838.3829999999999ZM181.491 842.628C181.491 845.1020000000001 179.473 847.114 176.991 847.114C174.50900000000001 847.114 172.491 845.1020000000001 172.491 842.628L172.491 840.254L181.491 840.254ZM173.271 800.546C173.271 798.5020000000001 174.939 796.839 176.99099999999999 796.839C179.04199999999997 796.839 180.70999999999998 798.5020000000001 180.70999999999998 800.546L180.70999999999998 804.3670000000001L180.33499999999998 804.272C178.117 803.714 175.94099999999997 803.705 173.64399999999998 804.272L173.271 804.365Z " fill="#a3ada7" fill-opacity="1" transform="matrix(1,0,0,1,-156,-794)"></path></svg>