<svg id="SvgjsSvg1060" xmlns="http://www.w3.org/2000/svg" version="1.1" xmlns:xlink="http://www.w3.org/1999/xlink" xmlns:svgjs="http://svgjs.com/svgjs" width="18" height="33" viewBox="0 0 18 33"><title>Shape 34</title><desc>Created with Avocode.</desc><defs id="SvgjsDefs1061"></defs><path id="SvgjsPath1062" d="M509.02 1099.66L506.68 1099.66L506.68 1098.0400000000002C506.5 1096.91 505.611 1096.0000000000002 504.52 1096.0000000000002L499.47999999999996 1096.0000000000002C498.388 1096.0000000000002 497.49999999999994 1096.9100000000003 497.31999999999994 1098.0400000000002L497.31999999999994 1099.7300000000002L494.97999999999996 1099.7300000000002C493.888 1099.7300000000002 492.99999999999994 1100.6500000000003 492.99999999999994 1101.7700000000002L492.99999999999994 1126.9600000000003C492.99999999999994 1128.0800000000002 493.8879999999999 1129.0000000000002 494.97999999999996 1129.0000000000002L509.02 1129.0000000000002C510.111 1129.0000000000002 511 1128.0800000000002 511 1126.9600000000003L511 1101.7700000000002C511 1100.6500000000003 510.111 1099.7300000000002 509.02 1099.6600000000003ZM509.2 1126.96C509.2 1127.06 509.11899999999997 1127.14 509.02 1127.19L494.97999999999996 1127.19C494.881 1127.14 494.79999999999995 1127.06 494.79999999999995 1126.96L494.79999999999995 1101.77C494.79999999999995 1101.67 494.881 1101.59 494.97999999999996 1101.51L509.02 1101.51C509.11899999999997 1101.59 509.2 1101.67 509.2 1101.77Z " fill="#98c82b" fill-opacity="1" transform="matrix(1,0,0,1,-493,-1096)"></path><path id="SvgjsPath1063" d="M496 1126L496 1121L508 1121L508 1126Z " fill="#98c82b" fill-opacity="1" transform="matrix(1,0,0,1,-493,-1096)"></path><path id="SvgjsPath1064" d="M496 1120L496 1115L508 1115L508 1120Z " fill="#98c82b" fill-opacity="1" transform="matrix(1,0,0,1,-493,-1096)"></path><path id="SvgjsPath1065" d="M496 1114L496 1109L508 1109L508 1114Z " fill="#98c82b" fill-opacity="1" transform="matrix(1,0,0,1,-493,-1096)"></path><path id="SvgjsPath1066" d="M496 1108L496 1103L508 1103L508 1108Z " fill="#98c82b" fill-opacity="1" transform="matrix(1,0,0,1,-493,-1096)"></path></svg>