<svg id="SvgjsSvg1031" xmlns="http://www.w3.org/2000/svg" version="1.1" xmlns:xlink="http://www.w3.org/1999/xlink" xmlns:svgjs="http://svgjs.com/svgjs" width="58" height="40" viewBox="0 0 58 40"><title>Shape 21</title><desc>Created with Avocode.</desc><defs id="SvgjsDefs1032"></defs><path id="SvgjsPath1033" d="M1025.76 447.199C1023.59 447.199 1021.96 448.901 1021.96 451.16L1021.96 451.19100000000003C1021.96 453.458 1023.6 455.16700000000003 1025.79 455.16700000000003C1027.96 455.16700000000003 1029.59 453.471 1029.59 451.221L1029.59 451.19100000000003C1029.59 448.95200000000006 1027.9099999999999 447.199 1025.76 447.199ZM1047.36 444.739L1047.04 444.57899999999995L1047.07 444.21799999999996C1047.08 444.12499999999994 1047.09 444.03499999999997 1047.1 443.94499999999994C1047.12 443.8109999999999 1047.1299999999999 443.69999999999993 1047.1299999999999 443.5779999999999C1047.1299999999999 438.2109999999999 1042.7499999999998 433.8449999999999 1037.36 433.8449999999999C1036.34 433.8449999999999 1035.27 434.0519999999999 1034.09 434.4769999999999L1033.6899999999998 434.6189999999999L1033.4599999999998 434.26699999999994C1030.4699999999998 429.7169999999999 1025.5099999999998 426.99999999999994 1020.1899999999998 426.99999999999994C1012.8699999999998 426.99999999999994 1006.5199999999999 431.94399999999996 1004.7399999999998 439.02299999999997L1004.6799999999998 439.27L1004.4499999999998 439.377C999.3159999999998 441.76 995.9999999999998 446.902 995.9999999999998 452.475C995.9999999999998 460.48400000000004 1002.5399999999997 467 1010.5799999999998 467L1042.1699999999998 467C1048.6899999999998 467 1053.9999999999998 461.713 1053.9999999999998 455.213C1053.9999999999998 450.78400000000005 1051.4599999999998 446.771 1047.3599999999997 444.73900000000003ZM1031.4 451.191C1031.4 454.34999999999997 1028.97 456.73199999999997 1025.76 456.73199999999997C1022.56 456.73199999999997 1020.15 454.36299999999994 1020.15 451.22099999999995L1020.15 451.191C1020.15 448.032 1022.5699999999999 445.649 1025.79 445.649C1028.99 445.649 1031.3999999999999 448.01800000000003 1031.3999999999999 451.16ZM1018.27 455.292C1017.14 456.28799999999995 1015.93 456.73199999999997 1014.37 456.73199999999997C1011.25 456.73199999999997 1008.9 454.36299999999994 1008.9 451.22099999999995L1008.9 451.191C1008.9 448.032 1011.28 445.649 1014.4499999999999 445.649C1015.91 445.649 1017.05 446.023 1018.14 446.859C1018.24 446.93699999999995 1018.47 447.15799999999996 1018.47 447.53999999999996C1018.47 448.00499999999994 1018.1 448.36899999999997 1017.62 448.36899999999997C1017.43 448.36899999999997 1017.26 448.313 1017.11 448.205C1016.26 447.518 1015.41 447.199 1014.4300000000001 447.199C1012.34 447.199 1010.71 448.939 1010.71 451.16L1010.71 451.19100000000003C1010.71 453.458 1012.3100000000001 455.16700000000003 1014.4300000000001 455.16700000000003C1015.5200000000001 455.16700000000003 1016.34 454.857 1017.24 454.09400000000005C1017.32 454.023 1017.5 453.90400000000005 1017.75 453.90400000000005C1018.18 453.90400000000005 1018.55 454.26200000000006 1018.55 454.68600000000004C1018.55 454.99500000000006 1018.38 455.199 1018.27 455.29200000000003ZM1040.36 456.545L1034.1399999999999 456.545C1033.58 456.545 1033.2199999999998 456.232 1033.2199999999998 455.747C1033.2199999999998 455.41200000000003 1033.37 455.129 1033.6799999999998 454.877L1037.0499999999997 452.021C1038.4599999999998 450.831 1039.1399999999996 450.074 1039.1399999999996 448.99C1039.1399999999996 447.909 1038.3799999999997 447.182 1037.2599999999995 447.182C1036.4099999999996 447.182 1035.7599999999995 447.546 1035.0199999999995 448.434C1034.9099999999996 448.55400000000003 1034.7199999999996 448.697 1034.4299999999996 448.697C1033.9999999999995 448.697 1033.6599999999996 448.353 1033.6599999999996 447.93C1033.6599999999996 447.746 1033.7299999999996 447.555 1033.8499999999997 447.404C1034.8399999999997 446.179 1035.8699999999997 445.68 1037.3999999999996 445.68C1039.4999999999995 445.68 1040.9099999999996 446.947 1040.9099999999996 448.834L1040.9099999999996 448.866C1040.9099999999996 450.546 1040.0099999999995 451.46 1038.0999999999997 453.012L1035.6199999999997 455.074L1040.3599999999997 455.074C1040.7699999999998 455.074 1041.0999999999997 455.397 1041.0999999999997 455.81C1041.0999999999997 456.215 1040.7699999999998 456.545 1040.3599999999997 456.545Z " fill="#98c82b" fill-opacity="1" transform="matrix(1,0,0,1,-996,-427)"></path></svg>