<svg id="SvgjsSvg1013" xmlns="http://www.w3.org/2000/svg" version="1.1" xmlns:xlink="http://www.w3.org/1999/xlink" xmlns:svgjs="http://svgjs.com/svgjs" width="53" height="52" viewBox="0 0 53 52"><title>Shape 6</title><desc>Created with Avocode.</desc><defs id="SvgjsDefs1014"></defs><path id="SvgjsPath1015" d="M177.299 643.655C174.94400000000002 643.6179999999999 172.704 644.4929999999999 171.007 646.132C169.308 647.7719999999999 168.34900000000002 649.9749999999999 168.30700000000002 652.337C168.22000000000003 657.211 172.11100000000002 661.2479999999999 176.98200000000003 661.336C177.00900000000001 661.336 177.03600000000003 661.336 177.06200000000004 661.336C179.41500000000005 661.336 181.63000000000005 660.4300000000001 183.31000000000003 658.779C185.00900000000004 657.108 185.95700000000002 654.876 185.97700000000003 652.493C185.97600000000003 647.706 182.08400000000003 643.7410000000001 177.29900000000004 643.6550000000001ZM177.325 659.351C177.266 659.353 177.206 659.353 177.146 659.353C175.381 659.353 173.712 658.6869999999999 172.427 657.4649999999999C171.1 656.2019999999999 170.344 654.4979999999999 170.297 652.665C170.201 648.884 173.198 645.7289999999999 176.977 645.632L176.979 645.632C177.00400000000002 645.632 177.02800000000002 645.632 177.05300000000003 645.632C180.84000000000003 645.632 183.95200000000003 648.694 184.00800000000004 652.492C184.00700000000003 656.2439999999999 181.07200000000003 659.256 177.32500000000005 659.351ZM202.976 655.067L202.976 649.689C202.976 648.9409999999999 202.976 648.632 195.887 646.107L195.834 646.0889999999999L194.90800000000002 643.877L194.93 643.827C197.942 637.013 197.741 636.812 197.205 636.276L193.00400000000002 632.1709999999999L192.61300000000003 632.1709999999999C192.38600000000002 632.1709999999999 191.69600000000003 632.1709999999999 185.80400000000003 634.8439999999999L185.75500000000002 634.866L185.705 634.846L183.47500000000002 633.952L183.455 633.902C180.673 626.994 180.39200000000002 626.994 179.643 626.994L174.148 626.994C173.399 626.994 173.09 626.994 170.508 633.9490000000001L170.489 634.0010000000001L168.219 634.926L168.171 634.9050000000001C164.398 633.296 161.875 632.3720000000001 161.248 632.3720000000001L160.77599999999998 632.3720000000001L156.624 636.4380000000001C156.041 636.9320000000001 155.802 637.1340000000001 159.01 643.8850000000001L159.035 643.9360000000001L158.077 646.1380000000001L158.028 646.1570000000002C150.98499999999999 648.8900000000001 150.98499999999999 649.1470000000002 150.98499999999999 649.9100000000002L150.98499999999999 655.2990000000002C150.98499999999999 656.0470000000003 150.98499999999999 656.3570000000002 158.05499999999998 658.8900000000002L158.10699999999997 658.9090000000002L159.03399999999996 661.1110000000002L159.01199999999997 661.1600000000002C156.02699999999996 667.9820000000002 156.20799999999997 668.1630000000002 156.74499999999998 668.7020000000002L160.956 672.8170000000002L161.38799999999998 672.8170000000002C161.61299999999997 672.8170000000002 162.29599999999996 672.8170000000002 168.19799999999998 670.1340000000002L168.24699999999999 670.1110000000002L170.517 671.0370000000003L170.537 671.0860000000002C173.318 677.9840000000003 173.59900000000002 677.9840000000003 174.348 677.9840000000003L179.834 677.9840000000003C180.596 677.9840000000003 180.912 677.9840000000003 183.474 671.0490000000003L183.493 670.9970000000003L185.772 670.0720000000003L185.82 670.0930000000003C189.58499999999998 671.7030000000003 192.10399999999998 672.6260000000003 192.733 672.6260000000003L193.184 672.6260000000003L197.367 668.5300000000003C197.91899999999998 667.9950000000003 198.12599999999998 667.7960000000003 194.951 661.1030000000003L194.927 661.0520000000002L194.94899999999998 661.0000000000002L195.87499999999997 658.8400000000003L195.92399999999998 658.8210000000003C202.97599999999997 656.0970000000002 202.97599999999997 655.8170000000002 202.97599999999997 655.0670000000002ZM200.997 654.54L200.93 654.5749999999999C200.091 655.0189999999999 198.017 655.881 194.768 657.1349999999999L194.376 657.2859999999998L192.79 661.0869999999999L192.97799999999998 661.4889999999999C194.01099999999997 663.6729999999999 195.16599999999997 666.3109999999999 195.55399999999997 667.3699999999999L195.58099999999996 667.4449999999999L195.52499999999995 667.502L192.45699999999994 670.572L192.38499999999993 670.549C191.35799999999995 670.226 188.68399999999994 669.169 186.16499999999994 668.092L185.78999999999994 667.931L181.94199999999992 669.489L181.78999999999994 669.9C180.86399999999995 672.401 179.81699999999992 674.999 179.35399999999993 675.944L179.31999999999994 676.014L174.60799999999995 676.014L174.76699999999994 675.854C174.29999999999993 674.9430000000001 173.41099999999994 672.8950000000001 172.54899999999995 670.9110000000001L171.98199999999994 669.581L168.14299999999994 668.022L167.76099999999994 668.201C165.62399999999994 669.195 162.77999999999994 670.4390000000001 161.71999999999994 670.799L161.64599999999993 670.8249999999999L158.52199999999993 667.698L158.54699999999994 667.624C158.92599999999993 666.506 160.10699999999994 663.708 161.04299999999995 661.582L161.22199999999995 661.188L159.62599999999995 657.399L159.21499999999995 657.246C157.03199999999995 656.466 154.11099999999993 655.372 153.06499999999994 654.859L152.99399999999994 654.825L152.99399999999994 650.4780000000001L153.06199999999995 650.4420000000001C154.14299999999994 649.8750000000001 157.00999999999996 648.7370000000001 159.22399999999996 647.8830000000002L159.61499999999995 647.7310000000001L161.20999999999995 643.9330000000001L161.01499999999996 643.5310000000001C160.01899999999995 641.445 158.80099999999996 638.744 158.39699999999996 637.6170000000001L158.36999999999998 637.542L161.49399999999997 634.416L161.56699999999998 634.4390000000001C162.61999999999998 634.7700000000001 165.361 635.85 167.807 636.897L168.18099999999998 637.057L172.009 635.499L172.16099999999997 635.0880000000001C172.96699999999998 632.912 174.07399999999998 630.0930000000001 174.59799999999998 629.0440000000001L174.63299999999998 628.974L179.18699999999998 628.974L179.22199999999998 629.042C179.778 630.1120000000001 180.98499999999999 632.9540000000001 181.83899999999997 635.085L181.99899999999997 635.4770000000001L185.84799999999996 637.0260000000001L186.22999999999996 636.8480000000001C188.59199999999996 635.7450000000001 191.30199999999996 634.5790000000001 192.27099999999996 634.249L192.34499999999997 634.2230000000001L192.40099999999998 634.2790000000001L195.469 637.3510000000001L195.444 637.4250000000001C195.06699999999998 638.528 193.904 641.2990000000001 192.94899999999998 643.4660000000001L192.771 643.8600000000001L194.36499999999998 647.6590000000001L194.77399999999997 647.8010000000002C195.90399999999997 648.2050000000002 199.68299999999996 649.5700000000002 200.92599999999996 650.1800000000002L200.99699999999996 650.2140000000002Z " fill="#a3ada7" fill-opacity="1" transform="matrix(1,0,0,1,-150,-626)"></path></svg>