<svg id="SvgjsSvg1037" xmlns="http://www.w3.org/2000/svg" version="1.1" xmlns:xlink="http://www.w3.org/1999/xlink" xmlns:svgjs="http://svgjs.com/svgjs" width="26" height="44" viewBox="0 0 26 44"><title>Shape 16</title><desc>Created with Avocode.</desc><defs id="SvgjsDefs1038"></defs><path id="SvgjsPath1039" d="M1425.04 426.631L1411.1599999999999 450.881C1410.9399999999998 451.27299999999997 1410.9399999999998 451.75 1411.1699999999998 452.14C1411.3899999999999 452.52799999999996 1411.81 452.768 1412.2599999999998 452.768L1420.0599999999997 452.768L1420.0999999999997 466.753C1420.0999999999997 467.323 1420.4899999999998 467.81899999999996 1421.0399999999997 467.965C1421.1399999999996 467.996 1421.2499999999998 468.008 1421.3599999999997 468.008C1421.7999999999997 468.008 1422.2199999999996 467.777 1422.4499999999996 467.38L1435.8199999999995 444.332C1436.0399999999995 443.941 1436.0399999999995 443.46 1435.8199999999995 443.07C1435.5899999999995 442.68 1435.1799999999994 442.439 1434.7299999999996 442.439L1427.3899999999996 442.439L1427.3899999999996 427.257C1427.3899999999996 426.685 1427.0099999999995 426.185 1426.4499999999996 426.038C1426.3399999999997 426.009 1426.2399999999996 425.995 1426.1299999999997 425.995C1425.6799999999996 425.995 1425.2599999999998 426.232 1425.0399999999997 426.63100000000003Z " fill="#98c82b" fill-opacity="1" transform="matrix(1,0,0,1,-1410,-425)"></path></svg>