<?xml version="1.0" encoding="utf-8"?>
<!-- Generator: Adobe Illustrator 16.0.0, SVG Export Plug-In . SVG Version: 6.00 Build 0)  -->
<!DOCTYPE svg PUBLIC "-//W3C//DTD SVG 1.1//EN" "http://www.w3.org/Graphics/SVG/1.1/DTD/svg11.dtd">
<svg version="1.1" id="Layer_1" xmlns="http://www.w3.org/2000/svg" xmlns:xlink="http://www.w3.org/1999/xlink" x="0px" y="0px"
	 width="105.795px" height="93.232px" viewBox="0 0 105.795 93.232" enable-background="new 0 0 105.795 93.232"
	 xml:space="preserve">
<g>
	<defs>
		<rect id="SVGID_1_" width="105.795" height="93.232"/>
	</defs>
	<clipPath id="SVGID_2_">
		<use xlink:href="#SVGID_1_"  overflow="visible"/>
	</clipPath>
	<path clip-path="url(#SVGID_2_)" fill="#A7CF38" d="M52.949,53.497l-11.979,7.116c4.121,2.769,8.492,4.955,11.979,6.47V53.497z"/>
	<path clip-path="url(#SVGID_2_)" fill="#A7CF38" d="M52.949,30.391V13.448L35.294,23.937c-4.459,6.396-7.575,12.296-7.575,17.99
		c0,1.103,0.132,2.18,0.378,3.229L52.949,30.391z"/>
	<path clip-path="url(#SVGID_2_)" fill="#A7CF38" d="M52.949,50.416V33.472L28.946,47.733c1.821,4.291,5.481,8.059,9.663,11.202
		L52.949,50.416z"/>
	<path clip-path="url(#SVGID_2_)" fill="#A7CF38" d="M52.949,10.366V0c-4.445,6.698-9.362,12.8-13.668,18.487L52.949,10.366z"/>
	<path clip-path="url(#SVGID_2_)" fill="#7F963B" d="M52.949,30.391l24.853,14.765c0.245-1.049,0.377-2.126,0.377-3.229
		c0-5.694-3.116-11.594-7.574-17.99L52.949,13.448V30.391z"/>
	<path clip-path="url(#SVGID_2_)" fill="#7F963B" d="M66.617,18.486C62.312,12.799,57.394,6.697,52.949,0v10.366L66.617,18.486z"/>
	<path clip-path="url(#SVGID_2_)" fill="#7F963B" d="M76.953,47.733L52.949,33.472v16.942l14.341,8.521
		C71.472,55.792,75.131,52.024,76.953,47.733"/>
	<path clip-path="url(#SVGID_2_)" fill="#7F963B" d="M52.949,67.083c3.485-1.516,7.857-3.702,11.979-6.471l-11.979-7.115V67.083z"/>
	<polygon clip-path="url(#SVGID_2_)" fill="#A7CF38" points="0,92.833 0,75.361 12.572,75.361 12.572,78.537 3.299,78.537 
		3.299,83.31 12.072,83.31 12.072,86.358 3.299,86.358 3.299,92.833 	"/>
	<path clip-path="url(#SVGID_2_)" fill="#A7CF38" d="M32.57,84.184c-0.051,4.524-2.826,9.049-8.974,9.049s-8.997-4.425-8.997-9.023
		s2.949-9.223,8.997-9.223C29.62,74.987,32.619,79.611,32.57,84.184 M17.848,84.259c0.075,2.874,1.624,5.948,5.748,5.948
		s5.674-3.099,5.724-5.973c0.05-2.95-1.6-6.248-5.724-6.248S17.773,81.31,17.848,84.259"/>
	<path clip-path="url(#SVGID_2_)" fill="#A7CF38" d="M48.12,84.184c-0.051,4.524-2.825,9.049-8.974,9.049
		c-6.148,0-8.997-4.425-8.997-9.023s2.949-9.223,8.997-9.223C45.17,74.987,48.169,79.611,48.12,84.184 M33.398,84.259
		c0.075,2.874,1.624,5.948,5.748,5.948s5.674-3.099,5.724-5.973c0.05-2.95-1.6-6.248-5.724-6.248S33.323,81.31,33.398,84.259"/>
	<path clip-path="url(#SVGID_2_)" fill="#A7CF38" d="M65.945,83.934c0.075,4.424-2.624,8.897-8.748,8.897h-6.873V75.336h6.873
		C63.196,75.336,65.869,79.611,65.945,83.934 M53.599,89.658h3.599c3.973,0,5.548-2.898,5.473-5.749
		c-0.074-2.724-1.675-5.448-5.473-5.448h-3.599V89.658z"/>
	<path clip-path="url(#SVGID_2_)" fill="#A7CF38" d="M81.12,79.611c-1.176-1.125-2.926-1.75-4.449-1.75
		c-3.749,0-6.024,2.85-6.024,6.448c0,2.874,1.676,5.849,6.024,5.849c1.375,0,2.574-0.299,3.949-1.4v-3.099h-4.475v-2.949h7.498
		v7.373c-1.724,1.975-3.898,3.15-6.973,3.15c-6.573,0-9.248-4.324-9.248-8.924c0-4.924,3.074-9.473,9.248-9.473
		c2.349,0,4.699,0.9,6.499,2.674L81.12,79.611z"/>
	<rect x="86.373" y="75.337" clip-path="url(#SVGID_2_)" fill="#A7CF38" width="3.273" height="17.495"/>
	<polygon clip-path="url(#SVGID_2_)" fill="#A7CF38" points="105.795,92.833 92.697,92.833 92.697,75.336 105.795,75.336 
		105.795,78.537 95.973,78.537 95.973,82.56 105.444,82.56 105.444,85.634 95.973,85.634 95.973,89.583 105.795,89.583 	"/>
</g>
</svg>
