<svg id="SvgjsSvg1025" xmlns="http://www.w3.org/2000/svg" version="1.1" xmlns:xlink="http://www.w3.org/1999/xlink" xmlns:svgjs="http://svgjs.com/svgjs" width="26" height="40" viewBox="0 0 26 40"><title>Shape 20</title><desc>Created with Avocode.</desc><defs id="SvgjsDefs1026"></defs><path id="SvgjsPath1027" d="M694.002 427.001C693.077 427.001 692.207 427.445 691.661 428.203C688.327 432.83 681 443.798 681 452.15999999999997C681 460.9 686.342 466.99899999999997 693.994 466.99899999999997C701.645 466.99899999999997 706.971 460.9 706.9870000000001 452.15999999999997C707.0000000000001 443.169 699.724 432.57599999999996 696.282 428.121C695.7330000000001 427.40999999999997 694.892 427.001 694.0020000000001 427.001ZM701.811 458.145C701.6030000000001 458.556 701.089 458.69399999999996 700.693 458.46799999999996L700.692 458.467C700.301 458.24399999999997 700.173 457.751 700.376 457.346C701.129 455.838 701.577 454.192 701.694 452.50600000000003C701.7249999999999 452.05800000000005 702.0759999999999 451.704 702.519 451.709L702.521 451.709C703 451.713 703.362 452.132 703.329 452.617C703.197 454.54400000000004 702.6809999999999 456.425 701.8109999999999 458.14500000000004Z " fill="#98c82b" fill-opacity="1" transform="matrix(1,0,0,1,-681,-427)"></path></svg>