<svg id="SvgjsSvg1054" xmlns="http://www.w3.org/2000/svg" version="1.1" xmlns:xlink="http://www.w3.org/1999/xlink" xmlns:svgjs="http://svgjs.com/svgjs" width="33" height="33" viewBox="0 0 33 33"><title>Shape 33</title><desc>Created with Avocode.</desc><defs id="SvgjsDefs1055"></defs><path id="SvgjsPath1056" d="M505.5 882C496.387 882 489 889.387 489 898.5C489 907.613 496.387 915 505.5 915C514.613 915 522 907.613 522 898.5C522 889.387 514.613 882 505.5 882ZM507.071 888.286L507.071 889.2679999999999C509.13000000000005 889.7259999999999 510.711 891.012 511.56500000000005 892.435C511.98900000000003 893.1419999999999 511.732 894.1719999999999 511.02400000000006 894.5959999999999C510.31700000000006 895.0199999999999 509.28800000000007 894.7629999999999 508.86400000000003 894.0559999999999C508.35400000000004 893.2059999999999 507.11600000000004 892.2139999999999 505.50000000000006 892.2139999999999C504.47700000000003 892.2139999999999 503.6600000000001 892.5079999999999 503.14300000000003 892.9259999999999C502.62600000000003 893.3449999999999 502.357 893.834 502.357 894.5709999999999C502.367 895.949 504.65700000000004 896.4549999999999 506.08900000000006 897.0269999999999C507.14400000000006 897.443 508.37600000000003 897.761 509.55100000000004 898.4749999999999C510.72600000000006 899.1899999999999 511.78600000000006 900.6399999999999 511.78600000000006 902.4279999999999C511.78600000000006 904.0709999999999 511.02200000000005 905.5529999999999 509.84600000000006 906.5039999999999C509.05500000000006 907.1439999999999 508.10800000000006 907.5719999999999 507.0710000000001 907.781L507.0710000000001 908.7139999999999C507.0710000000001 909.582 506.3680000000001 910.286 505.50000000000006 910.286C504.63200000000006 910.286 503.92800000000005 909.582 503.92800000000005 908.7139999999999L503.92800000000005 907.732C501.869 907.2679999999999 500.28900000000004 905.963 499.43500000000006 904.54C499.0110000000001 903.833 499.2680000000001 902.804 499.9750000000001 902.379C500.6820000000001 901.955 501.7120000000001 902.212 502.1360000000001 902.9200000000001C502.6460000000001 903.7690000000001 503.88400000000007 904.7860000000001 505.50000000000006 904.7860000000001C506.5230000000001 904.7860000000001 507.34000000000003 904.4670000000001 507.8570000000001 904.0490000000001C508.3740000000001 903.6310000000001 508.6430000000001 903.166 508.6430000000001 902.4280000000001C508.6330000000001 901.0240000000001 506.3540000000001 900.5220000000002 504.91100000000006 899.9490000000001C503.85600000000005 899.532 502.6240000000001 899.215 501.44900000000007 898.5000000000001C500.27400000000006 897.7850000000001 499.21400000000006 896.3600000000001 499.21400000000006 894.5710000000001C499.21400000000006 892.9280000000001 499.97800000000007 891.4220000000001 501.15400000000005 890.4710000000001C501.9440000000001 889.8320000000001 502.89300000000003 889.4200000000001 503.92800000000005 889.2190000000002L503.92800000000005 888.2860000000002C503.92800000000005 887.4180000000001 504.63200000000006 886.7140000000002 505.50000000000006 886.7140000000002C506.36800000000005 886.7140000000002 507.0710000000001 887.4180000000001 507.0710000000001 888.2860000000002Z " fill="#219c4a" fill-opacity="1" transform="matrix(1,0,0,1,-489,-882)"></path></svg>