<svg id="SvgjsSvg1028" xmlns="http://www.w3.org/2000/svg" version="1.1" xmlns:xlink="http://www.w3.org/1999/xlink" xmlns:svgjs="http://svgjs.com/svgjs" width="49" height="49" viewBox="0 0 49 49"><title>Shape 10</title><desc>Created with Avocode.</desc><defs id="SvgjsDefs1029"></defs><path id="SvgjsPath1030" d="M861.996 432.49C858.1129999999999 432.49 854.468 433.997 851.731 436.733C848.995 439.47 847.4879999999999 443.115 847.4879999999999 446.997C847.4879999999999 450.88 848.9949999999999 454.52500000000003 851.731 457.262C854.571 459.973 858.219 461.471 861.995 461.471C865.769 461.471 869.418 459.973 872.267 457.254C874.9960000000001 454.52500000000003 876.504 450.88 876.504 446.997C876.504 443.115 874.996 439.47 872.259 436.733C869.523 433.997 865.878 432.49 861.996 432.49ZM846.263 463.931L849.119 461.073C849.289 460.904 849.381 460.691 849.381 460.47299999999996C849.381 460.256 849.289 460.042 849.119 459.87299999999993C848.951 459.70399999999995 848.7370000000001 459.61099999999993 848.52 459.61099999999993C848.302 459.61099999999993 848.0889999999999 459.70399999999995 847.92 459.87299999999993L845.0609999999999 462.73099999999994C844.7139999999999 463.07899999999995 844.7139999999999 463.58399999999995 845.0609999999999 463.93199999999996C845.2579999999999 464.128 845.4089999999999 464.19399999999996 845.661 464.19399999999996C845.7979999999999 464.19399999999996 846.083 464.11099999999993 846.2629999999999 463.931ZM877.729 463.932C877.926 464.12800000000004 878.077 464.194 878.3290000000001 464.194C878.5820000000001 464.194 878.7330000000001 464.12800000000004 878.9300000000001 463.93100000000004C879.2760000000001 463.58400000000006 879.2760000000001 463.07900000000006 878.9290000000001 462.73100000000005L876.0710000000001 459.87300000000005C875.8980000000001 459.69900000000007 875.6840000000002 459.612 875.4710000000001 459.612C875.2570000000001 459.612 875.0440000000001 459.699 874.8700000000001 459.87300000000005C874.5230000000001 460.22100000000006 874.5230000000001 460.72600000000006 874.8700000000001 461.07300000000004ZM847.92 434.122C848.116 434.31800000000004 848.2679999999999 434.384 848.52 434.384C848.7719999999999 434.384 848.923 434.31800000000004 849.119 434.122C849.289 433.95300000000003 849.381 433.74 849.381 433.522C849.381 433.304 849.289 433.091 849.119 432.92199999999997L846.2620000000001 430.063C846.0880000000001 429.89 845.8750000000001 429.803 845.6610000000001 429.803C845.4480000000001 429.803 845.235 429.89 845.061 430.063C844.714 430.411 844.714 430.916 845.061 431.264ZM842.939 447.86C843.4789999999999 447.86 843.8009999999999 447.538 843.8009999999999 446.998C843.8009999999999 446.45799999999997 843.4789999999999 446.135 842.939 446.135L838.856 446.135C838.316 446.135 837.9929999999999 446.45799999999997 837.9929999999999 446.998C837.9929999999999 447.538 838.3159999999999 447.86 838.856 447.86ZM885.135 446.135L881.051 446.135C880.5110000000001 446.135 880.19 446.45799999999997 880.19 446.998C880.19 447.538 880.5110000000001 447.86 881.051 447.86L885.135 447.86C885.675 447.86 885.997 447.538 885.997 446.998C885.997 446.45799999999997 885.675 446.135 885.135 446.135ZM861.995 465.192C861.455 465.192 861.133 465.514 861.133 466.05400000000003L861.133 470.13800000000003C861.133 470.677 861.455 471.00000000000006 861.995 471.00000000000006C862.535 471.00000000000006 862.857 470.6770000000001 862.857 470.13800000000003L862.857 466.05400000000003C862.857 465.514 862.535 465.192 861.995 465.192ZM861.995 422.996C861.455 422.996 861.133 423.318 861.133 423.858L861.133 427.94100000000003C861.133 428.48100000000005 861.455 428.80300000000005 861.995 428.80300000000005C862.535 428.80300000000005 862.857 428.48100000000005 862.857 427.94100000000003L862.857 423.858C862.857 423.318 862.535 422.996 861.995 422.996ZM878.929 430.063C878.755 429.889 878.543 429.803 878.329 429.803C878.116 429.803 877.9019999999999 429.89 877.7289999999999 430.063L874.8699999999999 432.92199999999997C874.5229999999999 433.26899999999995 874.5229999999999 433.77399999999994 874.8699999999999 434.123C875.0669999999999 434.318 875.2179999999998 434.384 875.4709999999999 434.384C875.7229999999998 434.384 875.8739999999999 434.31800000000004 876.0719999999999 434.122L878.9289999999999 431.264C879.2759999999998 430.916 879.2759999999998 430.411 878.9289999999999 430.063Z " fill="#98c82b" fill-opacity="1" transform="matrix(1,0,0,1,-837,-422)"></path></svg>