<?xml version="1.0" encoding="UTF-8"?>
<svg width="56px" height="56px" viewBox="0 0 56 56" version="1.1" xmlns="http://www.w3.org/2000/svg" xmlns:xlink="http://www.w3.org/1999/xlink">
    <!-- Generator: Sketch 43 (38999) - http://www.bohemiancoding.com/sketch -->
    <title>menu</title>
    <desc>Created with Sketch.</desc>
    <defs></defs>
    <g id="Page-1" stroke="none" stroke-width="1" fill="none" fill-rule="evenodd">
        <g id="menu" fill-rule="nonzero" fill="#FFFFFF">
            <path d="M28,0 C12.561,0 0,12.561 0,28 C0,43.439 12.561,56 28,56 C43.439,56 56,43.439 56,28 C56,12.561 43.439,0 28,0 Z M28,54 C13.663,54 2,42.336 2,28 C2,13.664 13.663,2 28,2 C42.337,2 54,13.664 54,28 C54,42.336 42.337,54 28,54 Z" id="Shape"></path>
            <path d="M15,17 L41,17 C41.553,17 42,16.552 42,16 C42,15.448 41.553,15 41,15 L15,15 C14.447,15 14,15.448 14,16 C14,16.552 14.447,17 15,17 Z" id="Shape"></path>
            <path d="M45,31 L11,31 C10.447,31 10,31.448 10,32 C10,32.552 10.447,33 11,33 L45,33 C45.553,33 46,32.552 46,32 C46,31.448 45.553,31 45,31 Z" id="Shape"></path>
            <path d="M45,23 L11,23 C10.447,23 10,23.448 10,24 C10,24.552 10.447,25 11,25 L45,25 C45.553,25 46,24.552 46,24 C46,23.448 45.553,23 45,23 Z" id="Shape"></path>
            <path d="M41,39 L15,39 C14.447,39 14,39.448 14,40 C14,40.552 14.447,41 15,41 L41,41 C41.553,41 42,40.552 42,40 C42,39.448 41.553,39 41,39 Z" id="Shape"></path>
        </g>
    </g>
</svg>