<svg id="SvgjsSvg1019" xmlns="http://www.w3.org/2000/svg" version="1.1" xmlns:xlink="http://www.w3.org/1999/xlink" xmlns:svgjs="http://svgjs.com/svgjs" width="31" height="31" viewBox="0 0 31 31"><title>Shape 56</title><desc>Created with Avocode.</desc><defs id="SvgjsDefs1020"></defs><path id="SvgjsPath1021" d="M609.003 68.9999C600.7170000000001 68.9999 594 75.7157 594 83.9999C594 92.2842 600.717 98.9999 609.003 98.9999C617.289 98.9999 624.0070000000001 92.2842 624.0070000000001 83.9999C624.0070000000001 75.7157 617.2890000000001 68.9999 609.003 68.9999ZM612.264 89.5502C612.264 89.5502 612.202 90.9783 610.747 91.36710000000001C609.2919999999999 91.75580000000001 608.524 90.55210000000001 608.524 90.55210000000001C608.231 90.248 608.345 89.89670000000001 608.752 89.78800000000001L611.6819999999999 89.00540000000001C612.0879999999999 88.8969 612.3499999999999 89.1405 612.2639999999999 89.5502ZM615.475 86.9363L604.427 89.8876C604.23 89.9402 604.028 89.82600000000001 603.966 89.63260000000001C603.968 89.64080000000001 603.968 89.65100000000001 603.97 89.65880000000001L603.9590000000001 89.61810000000001C603.9609 89.62331000000002 603.96459 89.62691000000001 603.96582 89.63178C603.92111 89.42861 603.96114 89.13496 604.062 88.95930000000001L604.884 87.52950000000001L603.856 83.70470000000002C603.282 81.56990000000002 604.279 79.38820000000001 606.141 78.38380000000002L606.014 77.91080000000002C605.859 77.33380000000002 606.198 76.74390000000002 606.774 76.59010000000002C607.349 76.43630000000002 607.939 76.77820000000003 608.094 77.35520000000002L608.221 77.82830000000003C610.338 77.76950000000002 612.295 79.16230000000003 612.869 81.29710000000003L613.897 85.12180000000004L615.326 85.95030000000004C615.503 86.05300000000004 615.683 86.28730000000004 615.746 86.48590000000004C615.745 86.48040000000005 615.746 86.47520000000004 615.745 86.46960000000004L615.75582 86.50962000000004C615.75366 86.50200000000004 615.74795 86.49367000000004 615.746 86.48590000000004C615.79 86.68370000000004 615.673 86.88330000000005 615.475 86.93630000000005ZM615.756 86.5103L615.75582 86.50962C615.7558799999999 86.50985 615.75595 86.51008 615.756 86.5103Z " fill="#ffffff" fill-opacity="1" transform="matrix(1,0,0,1,-594,-68)"></path></svg>