<svg id="SvgjsSvg1034" xmlns="http://www.w3.org/2000/svg" version="1.1" xmlns:xlink="http://www.w3.org/1999/xlink" xmlns:svgjs="http://svgjs.com/svgjs" width="39" height="50" viewBox="0 0 39 50"><title>Shape 15</title><desc>Created with Avocode.</desc><defs id="SvgjsDefs1035"></defs><path id="SvgjsPath1036" d="M1278.37 419.217C1277.9499999999998 418.998 1277.4199999999998 419.163 1277.1999999999998 419.587L1271.2299999999998 430.991L1240.9199999999998 430.991C1240.56 430.991 1240.2399999999998 431.21 1240.11 431.544C1239.9799999999998 431.876 1240.07 432.25399999999996 1240.33 432.496L1243.59 435.46999999999997C1243.6399999999999 435.51199999999994 1243.6999999999998 435.53799999999995 1243.75 435.56899999999996L1243.75 463.58799999999997C1243.75 466.02099999999996 1245.74 468.001 1248.19 468.001L1268.6000000000001 468.001C1271.0500000000002 468.001 1273.0400000000002 466.02099999999996 1273.0400000000002 463.58799999999997L1273.0400000000002 435.784C1273.0400000000002 435.755 1273.0300000000002 435.727 1273.0300000000002 435.698L1273.4700000000003 435.698C1274.7700000000002 435.698 1275.8300000000002 434.642 1275.8300000000002 433.34499999999997C1275.8300000000002 432.046 1274.7700000000002 430.98999999999995 1273.4700000000003 430.98999999999995L1273.2000000000003 430.98999999999995L1278.7400000000002 420.38599999999997C1278.9700000000003 419.96099999999996 1278.8000000000002 419.438 1278.3700000000003 419.217ZM1253.62 457.245C1251 454.187 1250.1799999999998 459.044 1248.82 460.394C1248.08 461.085 1246.81 461.186 1245.5 461.117L1245.5 456.08700000000005L1248.58 456.08700000000005C1249.06 456.08700000000005 1249.4499999999998 455.69800000000004 1249.4499999999998 455.22C1249.4499999999998 454.742 1249.0599999999997 454.353 1248.58 454.353L1245.5 454.353L1245.5 452.158L1252.65 452.158C1253.13 452.158 1253.52 451.76800000000003 1253.52 451.291C1253.52 450.812 1253.1299999999999 450.424 1252.65 450.424L1245.5 450.424L1245.5 448.22799999999995L1248.58 448.22799999999995C1249.06 448.22799999999995 1249.4499999999998 447.84099999999995 1249.4499999999998 447.36199999999997C1249.4499999999998 446.883 1249.0599999999997 446.49499999999995 1248.58 446.49499999999995L1245.5 446.49499999999995L1245.5 444.29999999999995L1252.65 444.29999999999995C1253.13 444.29999999999995 1253.52 443.912 1253.52 443.43299999999994C1253.52 442.95599999999996 1253.1299999999999 442.5659999999999 1252.65 442.5659999999999L1245.5 442.5659999999999L1245.5 440.3699999999999L1248.58 440.3699999999999C1249.06 440.3699999999999 1249.4499999999998 439.9819999999999 1249.4499999999998 439.5029999999999C1249.4499999999998 439.02499999999986 1249.0599999999997 438.6369999999999 1248.58 438.6369999999999L1245.5 438.6369999999999L1245.5 435.6959999999999L1268.78 435.6959999999999L1256.03 460.06999999999994C1254.81 459.45199999999994 1254.49 458.3499999999999 1253.62 457.24499999999995ZM1271.3 435.784L1271.3 458.36199999999997C1270.81 458.683 1270.28 458.969 1269.6399999999999 459.13399999999996C1268.1999999999998 459.49399999999997 1266.4799999999998 458.59499999999997 1265.12 458.05499999999995C1263.9399999999998 457.6039999999999 1263.2199999999998 457.15599999999995 1262.1299999999999 458.05499999999995C1261.4099999999999 458.77399999999994 1261.32 460.03299999999996 1260.32 460.5729999999999C1259.7 460.87799999999993 1258.6299999999999 460.8059999999999 1257.71 460.61599999999993L1270.74 435.69699999999995L1271.31 435.69699999999995C1271.3 435.72599999999994 1271.3 435.75399999999996 1271.3 435.78399999999993ZM1244.52 433.966L1243.16 432.724L1270.3300000000002 432.724L1269.68 433.966ZM1274.09 433.345C1274.09 433.687 1273.81 433.96500000000003 1273.47 433.96500000000003L1271.65 433.96500000000003L1272.3000000000002 432.72400000000005L1273.4700000000003 432.72400000000005C1273.8100000000002 432.72400000000005 1274.0900000000001 433.00200000000007 1274.0900000000001 433.345Z " fill="#98c82b" fill-opacity="1" transform="matrix(1,0,0,1,-1240,-419)"></path></svg>