<?xml version="1.0" encoding="UTF-8"?>
<svg width="70px" height="67px" viewBox="0 0 70 67" version="1.1" xmlns="http://www.w3.org/2000/svg" xmlns:xlink="http://www.w3.org/1999/xlink">
    <!-- Generator: Sketch 43 (38999) - http://www.bohemiancoding.com/sketch -->
    <title>Group</title>
    <desc>Created with Sketch.</desc>
    <defs></defs>
    <g id="Page-1" stroke="none" stroke-width="1" fill="none" fill-rule="evenodd">
        <g id="Icons_Sprite_SVG" transform="translate(0.000000, -13.000000)" fill-rule="nonzero">
            <g id="Group" transform="translate(0.000000, 13.000000)">
                <circle id="Oval" fill="#A7CF42" cx="39.6" cy="37.6" r="29.4"></circle>
                <g transform="translate(10.000000, 8.000000)" id="Shape">
                    <path d="M19,37.3 C19.8,37.3 20.5,38 20.5,38.8 C20.5,38.9 20.5,39.1 20.4,39.2 L20.9,41.3 C22.5,41.2 22.8,42 22.7,42.8 C23.1,42.9 23.5,43.2 23.7,43.5 C24.5,43.5 25.2,44 25.7,44.6 C26,44.4 26.3,44.2 26.6,44.2 C27.3,44.2 27.8,44.6 28,45.3 C29.1,44.8 30.3,45.4 31.1,46 C31.4,45.8 31.7,45.7 32,45.7 L32.3,45.7 C32.6,45.3 33.1,45 33.7,44.9 C33.6,44.7 33.5,44.4 33.5,44.2 C33.5,43.4 34.2,42.7 35,42.7 C35.8,42.7 36.5,43.4 36.5,44.2 C36.5,44.5 36.4,44.8 36.2,45 C37.1,45.2 37.9,45.5 37.9,45.5 C37.3,43.9 38.1,43.1 39.1,42.8 C38.8,42.5 38.6,42.1 38.6,41.7 C38.6,40.9 39.3,40.2 40.1,40.2 C40.5,40.2 40.8,40.3 41.1,40.6 C41.5,39.5 42.8,38.8 42.8,38.8 L57.6,38.8 C58.6,35.9 59.1,32.8 59.1,29.6 C59.1,13.4 45.9,0.2 29.7,0.2 C13.5,0.2 0.2,13.3 0.2,29.6 C0.2,32.8 0.7,35.9 1.7,38.8 L17.6,38.8 C17.6,38 18.2,37.3 19,37.3 Z" fill="#A7CF42"></path>
                    <path d="M29.6,59 C42.6,59 53.7,50.5 57.5,38.8 L42.7,38.8 C42.7,38.8 41.5,39.5 41,40.6 C40.7,40.4 40.4,40.2 40,40.2 C39.2,40.2 38.5,40.9 38.5,41.7 C38.5,42.1 38.7,42.5 39,42.8 C38,43.2 37.1,43.9 37.8,45.5 C37.8,45.5 37.1,45.2 36.1,45 C36.3,44.8 36.4,44.5 36.4,44.2 C36.4,43.4 35.7,42.7 34.9,42.7 C34.1,42.7 33.4,43.4 33.4,44.2 C33.4,44.5 33.5,44.7 33.6,44.9 C33,45 32.5,45.2 32.2,45.7 L31.9,45.7 C31.6,45.7 31.2,45.8 31,46 C30.2,45.4 29.1,44.8 27.9,45.3 C27.7,44.7 27.2,44.2 26.5,44.2 C26.1,44.2 25.8,44.3 25.6,44.6 C25.1,44.1 24.4,43.5 23.6,43.5 C23.4,43.1 23,42.9 22.6,42.8 C22.6,42 22.3,41.2 20.8,41.3 L20.3,39.2 C20.3,39.1 20.4,39 20.4,38.8 C20.4,38 19.7,37.3 18.9,37.3 C18.1,37.3 17.4,38 17.4,38.8 L1.7,38.8 C5.5,50.5 16.6,59 29.6,59 Z" fill="#229C49"></path>
                </g>
                <circle id="Oval" fill="#FFFFFF" cx="18" cy="18" r="10.3"></circle>
                <path d="M6.9,1.2 L0,25.3 C0,25.3 7.4,32.2 30.6,34.1 L30.7,33.7 L36.2,9.6 C36.3,9.6 18.3,-1.1 6.9,1.2 Z M24.9,19.2 C24.9,19.2 24.5,21 21.3,19.9 C23.1,22.7 21.4,23.6 21.4,23.6 C21.4,23.6 19.8,24.6 18.4,21.6 C17.7,24.9 15.9,24.3 15.9,24.3 C15.9,24.3 14.1,23.9 15.2,20.7 C12.4,22.5 11.6,20.8 11.6,20.8 C11.6,20.8 10.6,19.2 13.6,17.8 C10.4,17 11,15.2 11,15.2 C11,15.2 11.4,13.4 14.6,14.5 C12.8,11.7 14.5,10.8 14.5,10.8 C14.5,10.8 16.1,9.8 17.5,12.8 C18.2,9.5 20,10.1 20,10.1 C20,10.1 21.8,10.5 20.7,13.7 C23.5,11.9 24.3,13.6 24.3,13.6 C24.3,13.6 25.3,15.2 22.3,16.6 C25.5,17.4 24.9,19.2 24.9,19.2 Z M18.4,15.7 C17.5,15.5 16.7,15.9 16.4,16.8 C16.2,17.7 16.6,18.5 17.5,18.8 C18.4,19 19.2,18.6 19.5,17.7 C19.7,16.8 19.2,15.9 18.4,15.7 Z M35.3,38.7 C35.3,38.7 38.6,34.1 35.3,31.3 C31.4,34.1 35.3,38.7 35.3,38.7 Z M40.9,24 C37,26.8 40.9,31.4 40.9,31.4 C40.9,31.4 44.2,26.8 40.9,24 Z M41.4,40.2 C37.5,43 41.4,47.6 41.4,47.6 C41.4,47.6 44.7,43 41.4,40.2 Z" id="Shape" fill="#229C49"></path>
            </g>
        </g>
    </g>
</svg>