<?xml version="1.0" encoding="UTF-8"?>
<svg width="60px" height="72px" viewBox="0 0 60 72" version="1.1" xmlns="http://www.w3.org/2000/svg" xmlns:xlink="http://www.w3.org/1999/xlink">
    <!-- Generator: Sketch 43 (38999) - http://www.bohemiancoding.com/sketch -->
    <title>Group</title>
    <desc>Created with Sketch.</desc>
    <defs></defs>
    <g id="Page-1" stroke="none" stroke-width="1" fill="none" fill-rule="evenodd">
        <g id="Icons_Sprite_SVG" transform="translate(-290.000000, -8.000000)" fill-rule="nonzero">
            <g id="Group" transform="translate(290.000000, 8.000000)">
                <circle id="Oval" fill="#A7CF42" cx="30" cy="42.6" r="29.4"></circle>
                <g transform="translate(0.000000, 13.000000)" id="Shape">
                    <path d="M12.8,42 C15.6,38.9 19.6,37 24,37 L24.2,37 C28,37 31.5,38.5 34.1,40.9 C35,40.7 35.8,40.5 36.8,40.5 C40.2,40.5 43.2,42.2 45.1,44.8 C46.5,43.8 48.3,43.1 50.2,43.1 C52.1,43.1 53.8,43.7 55.2,44.7 C57.9,40.2 59.5,35 59.5,29.4 C59.5,13.2 46.3,-7.10542736e-15 30.1,-7.10542736e-15 C13.9,-7.10542736e-15 0.7,13.2 0.7,29.4 C0.7,34.7 2.1,39.6 4.5,43.9 C6.3,42.5 8.5,41.6 11,41.6 C11.5,41.8 12.2,41.9 12.8,42 Z" fill="#A7CF42"></path>
                    <path d="M30,59 C40.7,59 50,53.3 55.1,44.9 C53.7,43.9 51.9,43.3 50.1,43.3 C48.2,43.3 46.5,43.9 45,45 C43.1,42.4 40.1,40.7 36.7,40.7 C35.8,40.7 34.9,40.8 34,41.1 C31.3,38.7 27.9,37.2 24.1,37.2 L23.9,37.2 C19.5,37.2 15.5,39.1 12.7,42.2 C12.1,42.1 11.5,42 10.8,42 C8.3,42 6.1,42.9 4.3,44.3 C9.4,53 19,59 30,59 Z" fill="#229C49"></path>
                </g>
                <path d="M32.2,36.6 C30.7,37.9 29.6,39.4 28.8,40.8 C29.3,33.3 31.4,23.8 37.3,14.7 C46.8,13.4 45.9,1.5 45.8,0.8 L45.8,0.8 C33.6,4.7 34.3,10.9 35.3,13.6 C32.4,18.1 30.4,22.7 29,27.1 C28.7,25.9 28.4,24.7 27.8,23.5 C29.9,18.2 27.4,1.7 3.7,9.5 L3.8,9.5 L3.8,9.5 C4.5,9.9 7.8,12 10.4,18.7 C13.1,25.7 20.4,27.2 26,25.1 C27.9,30.2 27.1,35.4 27,35.4 L27,35.4 C26.1,41.5 26.2,46.8 26.5,50.4 L26.5,51.1 L26.5,51.1 C26.8,53.8 27.1,55.4 27.1,55.5 L28.1,55.3 L29.3,55 C29.3,54.9 28.9,53.3 28.7,50.6 C28.6,49.1 28.7,42.9 33.1,38.7 C37.8,42.5 45.2,43.4 49.9,37.6 C54.4,32.1 58.3,31.1 59,31 L59,31 L59.1,31 C39.3,16 31.8,30.9 32.2,36.6 Z" id="Shape" fill="#229C49"></path>
            </g>
        </g>
    </g>
</svg>