<?xml version="1.0" encoding="UTF-8"?>
<svg width="59px" height="59px" viewBox="0 0 59 59" version="1.1" xmlns="http://www.w3.org/2000/svg" xmlns:xlink="http://www.w3.org/1999/xlink">
    <!-- Generator: Sketch 43 (38999) - http://www.bohemiancoding.com/sketch -->
    <title>Group</title>
    <desc>Created with Sketch.</desc>
    <defs></defs>
    <g id="Page-1" stroke="none" stroke-width="1" fill="none" fill-rule="evenodd">
        <g id="Icons_Sprite_SVG" transform="translate(-197.000000, -21.000000)" fill-rule="nonzero">
            <g id="Group" transform="translate(197.000000, 21.000000)">
                <circle id="Oval" fill="#A7CF42" cx="29.5" cy="29.6" r="29.4"></circle>
                <path d="M10.5,37.1 C11.1,37.1 11.8,37.2 12.4,37.3 C15.2,34.3 19.1,32.4 23.5,32.4 L23.7,32.4 C26,32.4 28.2,33 30.2,33.9 C30.7,27 30.9,19.1 17.3,26.3 C2.2,34.3 4,11.6 19.7,12.6 C33.1,13.4 32.3,30 31.8,34.9 C32.4,35.3 33,35.7 33.6,36.2 C34.4,36 35.3,35.8 36.2,35.8 C39.6,35.8 42.6,37.5 44.4,40 C45.8,39 47.6,38.4 49.4,38.4 C52.2,38.4 54.6,39.7 56.2,41.8 C57.9,38.1 58.9,33.9 58.9,29.6 C58.9,13.4 45.7,0.2 29.5,0.2 C13.3,0.2 0.1,13.4 0.1,29.6 C0.1,33.6 0.9,37.5 2.4,41 C4.3,38.6 7.2,37.1 10.5,37.1 Z M41.3,12.5 C53.6,11.7 55,29.5 43.2,23.3 C36.1,19.6 33.5,20.4 32.6,22.9 C32.8,18.1 34.7,12.9 41.3,12.5 Z" id="Shape" fill="#A7CF42"></path>
                <path d="M43.2,23.3 C55.1,29.6 53.7,11.7 41.3,12.5 C34.7,12.9 32.8,18.1 32.5,22.9 C33.4,20.4 36.1,19.6 43.2,23.3 Z" id="Shape" fill="#229C49"></path>
                <path d="M29.5,59 C41.4,59 51.6,51.9 56.3,41.8 C54.7,39.8 52.2,38.4 49.5,38.4 C47.6,38.4 45.9,39 44.5,40 C42.7,37.4 39.7,35.8 36.3,35.8 C35.4,35.8 34.5,35.9 33.7,36.2 C33.1,35.7 32.5,35.3 31.9,34.9 C32.4,30 33.2,13.4 19.8,12.6 C4.1,11.6 2.3,34.3 17.4,26.3 C31,19.1 30.8,27.1 30.3,33.9 C28.3,32.9 26.1,32.4 23.8,32.4 L23.6,32.4 C19.2,32.4 15.3,34.3 12.5,37.3 C11.9,37.2 11.3,37.1 10.6,37.1 C7.3,37.1 4.4,38.6 2.5,41 C6.8,51.6 17.3,59 29.5,59 Z" id="Shape" fill="#229C49"></path>
            </g>
        </g>
    </g>
</svg>