<?xml version="1.0" encoding="UTF-8"?>
<svg width="59px" height="65px" viewBox="0 0 59 65" version="1.1" xmlns="http://www.w3.org/2000/svg" xmlns:xlink="http://www.w3.org/1999/xlink">
    <!-- Generator: Sketch 43 (38999) - http://www.bohemiancoding.com/sketch -->
    <title>Group</title>
    <desc>Created with Sketch.</desc>
    <defs></defs>
    <g id="Page-1" stroke="none" stroke-width="1" fill="none" fill-rule="evenodd">
        <g id="Icons_Sprite_SVG" transform="translate(-384.000000, -15.000000)" fill-rule="nonzero">
            <g id="Group" transform="translate(384.000000, 15.000000)">
                <circle id="Oval" fill="#A7CF42" cx="29.4" cy="35.6" r="29.4"></circle>
                <g transform="translate(0.000000, 6.000000)" id="Shape">
                    <path d="M29.4,0.2 C13.2,0.2 0,13.4 0,29.6 C0,35.6 1.8,41.2 4.9,45.8 L6.2,40.2 C6.4,39.4 7.2,38.5 8,38.1 L21.3,31.3 C22.9,30.5 24.9,30.5 25.9,31.3 C26.9,32.1 26.6,33.7 25.3,34.9 L19.8,39.8 C19.8,39.8 17.9,42 19.8,42.6 C21.7,43.3 30.7,43.8 34.3,41.6 C37.9,39.4 50.4,27.4 50.4,27.4 C50.4,27.4 54.9,27.1 53.1,31 C51.4,35 40.9,47.1 38.8,48.9 C36.9,50.5 24.9,51.2 19.8,57.4 C22.8,58.4 26,59 29.4,59 C45.6,59 58.8,45.8 58.8,29.6 C58.8,13.3 45.7,0.2 29.4,0.2 Z" fill="#A7CF42"></path>
                    <path d="M38.9,48.9 C41,47.1 51.5,35 53.2,31 C54.9,27 50.5,27.4 50.5,27.4 C50.5,27.4 38,39.5 34.4,41.6 C30.8,43.8 21.8,43.3 19.9,42.6 C18,41.9 19.9,39.8 19.9,39.8 L25.4,34.9 C26.7,33.8 26.9,32.2 26,31.3 C25,30.5 23,30.5 21.4,31.3 L8.1,38.1 C7.3,38.5 6.5,39.5 6.3,40.2 L5,45.8 C8.5,51.1 13.8,55.3 20,57.4 C25,51.2 37,50.5 38.9,48.9 Z" fill="#229C49"></path>
                </g>
                <path d="M32.2,27.8 C31,28.8 30.2,29.9 29.6,31 C30,25.3 31.6,18 36.3,11.1 C43.8,10.1 43.1,1 43,0.5 L43,0.5 C33.4,3.5 34,8.3 34.7,10.3 C32.4,13.7 30.8,17.3 29.8,20.7 C29.6,19.8 29.3,18.8 28.9,17.9 C30.6,13.9 28.6,1.3 9.9,7.2 L10,7.2 L10,7.2 C10.5,7.5 13.2,9.1 15.2,14.2 C17.3,19.5 23,20.7 27.5,19.1 C29,23 28.3,27 28.3,27 L28.3,27 C27.6,31.6 27.7,35.7 27.9,38.5 L27.9,39 L27.9,39 C27.9,39.3 28,39.6 28,39.9 C27.7,40.6 27.2,41.4 26.6,42 L21.3,46.8 C22.2,47 23.9,47.1 25.8,47.1 C29.3,47.1 32.2,46.6 33.5,45.8 C34.4,45.3 36.1,43.9 38,42.3 C37.2,41.9 36.4,41.6 35.4,41.6 C34.9,41.6 34.5,41.7 34.1,41.8 C33,40.8 31.5,40.1 29.9,40 C29.8,39.6 29.8,39.2 29.8,38.7 C29.7,37.6 29.8,32.8 33.3,29.6 C37,32.5 42.8,33.2 46.5,28.8 C50.1,24.6 53.1,23.9 53.7,23.8 L53.7,23.8 L53.8,23.8 C37.8,12.1 31.9,23.5 32.2,27.8 Z" id="Shape" fill="#229C49"></path>
            </g>
        </g>
    </g>
</svg>