<svg id="SvgjsSvg1000" xmlns="http://www.w3.org/2000/svg" version="1.1" xmlns:xlink="http://www.w3.org/1999/xlink" xmlns:svgjs="http://svgjs.com/svgjs" width="44" height="84" viewBox="0 0 44 84"><title>Shape 14</title><desc>Created with Avocode.</desc><defs id="SvgjsDefs1001"></defs><path id="SvgjsPath1007" d="M160 329L168 359L190 359L197 329Z " fill="#a7d442" fill-opacity="1" transform="matrix(1,0,0,1,-155,-276)"></path><path id="SvgjsPath1008" d="M158 324L198 324L196 329L159 329Z " fill="#beeb59" fill-opacity="1" transform="matrix(1,0,0,1,-155,-276)"></path><path id="SvgjsPath1009" d="M198.699 323.363C198.49900000000002 323.062 198.20000000000002 322.961 197.901 322.961L178.544 322.961C178.643 321.553 178.643 320.04400000000004 178.643 319.642L178.643 318.938L183.632 313.707C183.732 313.60699999999997 183.93200000000002 313.406 184.031 313.305C189.519 314.613 195.207 311.897 197.80100000000002 306.56600000000003C198.59900000000002 304.85600000000005 198.89800000000002 302.744 198.89800000000002 300.93300000000005C191.21500000000003 299.32400000000007 184.53000000000003 300.93300000000005 182.53500000000003 305.35900000000004C181.53700000000003 307.57200000000006 181.73700000000002 310.086 182.83400000000003 312.40000000000003C182.73400000000004 312.50000000000006 182.63500000000002 312.60100000000006 182.63500000000002 312.70200000000006L178.84300000000002 316.7250000000001L178.84300000000002 294.59600000000006L181.936 291.37800000000004C182.036 291.17600000000004 182.235 291.076 182.335 290.975C185.428 291.478 188.621 290.07000000000005 190.118 287.052C190.617 285.946 190.916 284.73900000000003 190.916 283.63300000000004C186.426 282.526 182.335 283.331 181.038 285.946C180.34 287.153 180.43900000000002 288.56100000000004 180.93800000000002 290.07000000000005C180.83800000000002 290.17100000000005 180.83800000000002 290.17100000000005 180.739 290.2710000000001L178.84300000000002 292.2830000000001L178.84300000000002 278.60300000000007C178.84300000000002 278.2010000000001 178.44400000000002 277.7990000000001 178.04500000000002 277.7990000000001C177.64600000000002 277.7990000000001 177.247 278.2010000000001 177.247 278.60300000000007L177.247 286.0470000000001L175.65 284.0350000000001C175.251 283.5320000000001 174.852 283.1300000000001 174.453 282.7270000000001C174.752 281.5200000000001 174.752 280.3130000000001 174.25300000000001 279.4080000000001C172.95600000000002 276.8930000000001 169.06500000000003 275.98800000000006 164.57500000000002 276.8930000000001C164.57500000000002 278.0000000000001 164.77400000000003 279.1060000000001 165.37300000000002 280.2130000000001C166.87000000000003 283.3310000000001 170.36200000000002 284.7390000000001 173.455 284.1350000000001C173.75400000000002 284.4370000000001 174.054 284.8390000000001 174.453 285.1410000000001L177.247 288.6620000000001L177.247 303.0450000000001L177.04700000000003 310.7900000000001L172.65700000000004 306.26400000000007C172.55700000000004 306.16400000000004 172.55700000000004 306.16400000000004 172.45700000000005 306.06300000000005C173.55500000000006 303.54800000000006 173.55500000000006 301.13400000000007 172.55700000000004 298.92100000000005C170.36200000000005 294.49600000000004 163.77600000000004 293.08700000000005 155.99400000000006 294.797C155.99400000000006 296.709 156.29300000000006 298.72 157.29100000000005 300.43C159.98500000000004 305.661 165.77200000000005 308.37600000000003 171.26000000000005 306.968C171.36000000000004 307.069 171.45900000000006 307.16900000000004 171.55900000000005 307.27000000000004L176.94700000000006 312.903L176.64800000000005 322.961L157.69000000000005 322.961C157.39100000000005 322.961 157.09100000000007 323.062 156.89200000000005 323.363C156.69200000000006 323.565 156.59200000000004 323.967 156.69200000000006 324.269L157.98900000000006 329.499C158.08900000000006 329.90200000000004 158.48800000000006 330.30400000000003 158.98700000000005 330.30400000000003L159.28600000000006 330.30400000000003L166.67000000000007 359.97600000000006L190.0180000000001 359.97600000000006L196.10500000000008 330.30400000000003L196.60300000000007 330.30400000000003C197.10200000000006 330.30400000000003 197.50100000000006 330.002 197.60100000000006 329.499L198.89800000000005 324.269C198.99800000000005 323.866 198.89800000000005 323.565 198.69900000000004 323.363ZM188.422 357.864L168.167 357.864L161.282 330.203L194.00900000000001 330.203ZM195.905 328.091L159.486 328.091L158.78699999999998 324.973L196.70299999999997 324.973Z " fill="#6e892d" fill-opacity="1" transform="matrix(1,0,0,1,-155,-276)"></path></svg>