<svg id="SvgjsSvg1010" xmlns="http://www.w3.org/2000/svg" version="1.1" xmlns:xlink="http://www.w3.org/1999/xlink" xmlns:svgjs="http://svgjs.com/svgjs" width="43" height="56" viewBox="0 0 43 56"><title>Shape 5</title><desc>Created with Avocode.</desc><defs id="SvgjsDefs1011"></defs><path id="SvgjsPath1012" d="M170.184 480.219L188.072 480.219C188.55700000000002 480.219 188.937 479.843 188.937 479.36199999999997C188.937 478.881 188.55700000000002 478.50499999999994 188.072 478.50499999999994L170.184 478.50499999999994C169.69899999999998 478.50499999999994 169.319 478.8809999999999 169.319 479.36199999999997C169.319 479.84299999999996 169.69899999999998 480.219 170.184 480.219ZM165.713 513.955L169.29 513.955C169.775 513.955 170.155 513.5790000000001 170.155 513.0980000000001L170.155 509.5160000000001L192.544 509.5160000000001C195.48600000000002 509.5160000000001 197.881 507.1400000000001 197.881 504.2200000000001L197.881 464.26900000000006C197.881 461.34900000000005 195.486 458.97300000000007 192.544 458.97300000000007L156.769 458.97300000000007C156.284 458.97300000000007 155.904 459.34900000000005 155.904 459.8300000000001L155.904 508.6590000000001C155.904 509.1400000000001 156.284 509.51600000000013 156.769 509.51600000000013L164.848 509.51600000000013L164.848 513.0980000000002C164.848 513.5790000000002 165.228 513.9550000000002 165.71300000000002 513.9550000000002ZM162.106 507.802L162.106 487.321L196.151 487.321L196.151 504.22C196.151 506.19500000000005 194.53300000000002 507.802 192.544 507.802ZM162.106 473.561L196.151 473.561L196.151 485.60699999999997L162.106 485.60699999999997ZM162.106 460.688L192.54399999999998 460.688C194.533 460.688 196.15099999999998 462.295 196.15099999999998 464.269L196.15099999999998 471.846L162.106 471.846ZM160.376 507.802L157.63400000000001 507.802L157.63400000000001 460.68800000000005L160.376 460.68800000000005ZM168.425 512.24L166.578 512.24L166.578 509.516L168.425 509.516Z " fill="#a3ada7" fill-opacity="1" transform="matrix(1,0,0,1,-155,-458)"></path></svg>