<svg id="SvgjsSvg1022" xmlns="http://www.w3.org/2000/svg" version="1.1" xmlns:xlink="http://www.w3.org/1999/xlink" xmlns:svgjs="http://svgjs.com/svgjs" width="17" height="40" viewBox="0 0 17 40"><title>Shape 18</title><desc>Created with Avocode.</desc><defs id="SvgjsDefs1023"></defs><path id="SvgjsPath1024" d="M533.414 452.317L533.414 431.42C533.414 428.983 531.433 427 529 427C526.565 427 524.585 428.983 524.585 431.42L524.585 452.317C522.363 453.795 520.998 456.315 520.998 458.98900000000003C520.998 463.406 524.5870000000001 467.00000000000006 528.999 467.00000000000006C533.41 467.00000000000006 536.999 463.40600000000006 536.999 458.99000000000007C537 456.31500000000005 535.636 453.7950000000001 533.414 452.31700000000006ZM528.998 464.46C526.089 464.46 523.73 462.09799999999996 523.73 459.185C523.73 456.272 526.089 453.91 528.998 453.91C531.908 453.91 534.267 456.27200000000005 534.267 459.185C534.267 462.098 531.908 464.46 528.998 464.46Z " fill="#98c82b" fill-opacity="1" transform="matrix(1,0,0,1,-520,-427)"></path></svg>