<svg id="SvgjsSvg1043" xmlns="http://www.w3.org/2000/svg" version="1.1" xmlns:xlink="http://www.w3.org/1999/xlink" xmlns:svgjs="http://svgjs.com/svgjs" width="53" height="54" viewBox="0 0 53 54"><title>Kształt 6 copy 3</title><desc>Created with Avocode.</desc><defs id="SvgjsDefs1044"></defs><path id="SvgjsPath1045" d="M1813.05 84.4977C1813.05 71.48849999999999 1802.51 60.942299999999996 1789.5 60.942299999999996C1776.49 60.942299999999996 1765.94 71.4885 1765.94 84.4977C1765.94 91.39949999999999 1768.91 97.6077 1773.64 101.916C1773.89 101.79899999999999 1774.15 101.69 1774.43 101.59C1777.67 100.421 1781.3700000000001 99.9016 1783.77 98.5699C1785.09 97.83680000000001 1785.25 96.003 1784.09 95.03490000000001C1782.1 93.37700000000001 1781.01 90.74470000000001 1780.4199999999998 88.0682C1779.3899999999999 87.302 1777.11 82.7029 1779.1599999999999 81.8401C1778.6999999999998 80.24210000000001 1777.6299999999999 74.8481 1782.4199999999998 70.94560000000001C1787.81 66.56030000000001 1795.9899999999998 72.29250000000002 1798.11 68.18050000000001C1798.2199999999998 67.96790000000001 1798.51 67.94780000000002 1798.6399999999999 68.14940000000001C1799.29 69.18070000000002 1800.55 71.82780000000001 1798.8999999999999 74.96100000000001C1799.2299999999998 76.39300000000001 1799.7099999999998 79.21020000000001 1799.1599999999999 81.79160000000002C1801.84 82.52130000000001 1799.09 87.32710000000002 1797.9799999999998 88.07780000000001C1797.3899999999999 90.7506 1796.2999999999997 93.37880000000001 1794.3099999999997 95.03490000000001C1793.1499999999996 96.00300000000001 1793.3099999999997 97.83680000000001 1794.6299999999997 98.5699C1797.0299999999997 99.9016 1800.7299999999996 100.421 1803.9799999999996 101.59C1804.3999999999996 101.74300000000001 1804.7899999999995 101.917 1805.1399999999996 102.108C1809.9999999999995 97.7937 1813.0499999999997 91.5025 1813.0499999999997 84.49770000000001ZM1763 84.4977C1763 69.8628 1774.86 57.997699999999995 1789.5 57.997699999999995C1804.13 57.997699999999995 1816 69.8628 1816 84.4977C1816 99.1334 1804.13 110.99799999999999 1789.5 110.99799999999999C1774.86 110.99799999999999 1763 99.1334 1763 84.4977Z " fill="#50a547" fill-opacity="1" transform="matrix(1,0,0,1,-1763,-57)"></path></svg>